<svg width="148" height="92" viewBox="0 0 148 92" fill="none" xmlns="http://www.w3.org/2000/svg">
<g clip-path="url(#clip0_2809_13)">
<path fill-rule="evenodd" clip-rule="evenodd" d="M61.5865 8.80571C60.1473 8.80571 58.9879 8.4086 58.1184 7.62431C57.2488 6.8301 56.8091 5.7579 56.8091 4.40774C56.8091 3.05757 57.2388 1.97545 58.1184 1.19116C58.9879 0.396946 60.1473 0.00976562 61.5865 0.00976562C63.0257 0.00976562 64.1851 0.406874 65.0546 1.19116C65.9241 1.98538 66.3639 3.05757 66.3639 4.40774C66.3639 5.7579 65.9241 6.8301 65.0546 7.62431C64.1851 8.41853 63.0257 8.80571 61.5865 8.80571ZM58.858 42.1032C58.3682 42.1032 58.0084 41.994 57.7786 41.7657C57.5487 41.5373 57.4387 41.1799 57.4387 40.6935V14.673C57.4387 14.1468 57.5487 13.7795 57.7786 13.571C58.0084 13.3625 58.3682 13.2632 58.858 13.2632H64.315C64.8447 13.2632 65.2145 13.3625 65.4244 13.571C65.6343 13.7795 65.7343 14.1468 65.7343 14.673V40.6935C65.7343 41.1799 65.6243 41.5373 65.4244 41.7657C65.2145 41.994 64.8447 42.1032 64.315 42.1032H58.858ZM1.03952 53.421C1.2694 53.6196 1.6292 53.7288 2.11894 53.7288V53.7188H7.58599C8.1157 53.7188 8.4855 53.6196 8.69538 53.4111C8.89528 53.2026 9.00522 52.8353 9.00522 52.3091V39.9491C9.98469 40.8228 11.184 41.4978 12.5833 41.9843C13.9825 42.4707 15.4617 42.7189 17.0109 42.7189C19.3596 42.7189 21.4385 42.0836 23.2575 40.8227C25.0765 39.5619 26.5158 37.765 27.5752 35.432C28.6346 33.099 29.1643 30.3788 29.1643 27.2516C29.1643 22.7047 28.1049 19.091 25.9561 16.4205C23.8072 13.7499 20.9088 12.4097 17.2308 12.4097C15.5617 12.4097 13.9226 12.7373 12.3134 13.3727C10.7043 14.018 9.33504 14.8817 8.19565 15.9737L7.79587 14.5044C7.60597 13.6804 7.07626 13.2634 6.20673 13.2634H2.11894C1.6292 13.2634 1.2694 13.3627 1.03952 13.5712C0.809648 13.7797 0.699707 14.147 0.699707 14.6732V52.319C0.699707 52.8452 0.809648 53.2125 1.03952 53.421ZM19.2497 34.3697C18.2502 35.7993 16.6811 36.5141 14.5622 36.5141V36.5241C12.5133 36.5241 10.6643 36.0078 8.99522 34.9952V20.1533C10.7343 19.1307 12.5933 18.6244 14.5622 18.6244C16.721 18.6244 18.2902 19.3392 19.2797 20.7688C20.2691 22.1984 20.7589 24.5115 20.7589 27.5991C20.7589 30.6866 20.2491 32.9402 19.2497 34.3697ZM35.0713 41.7658C35.3011 41.9941 35.6609 42.1033 36.1507 42.1033H36.1607H41.6177C42.1474 42.1033 42.5172 41.9941 42.7271 41.7658C42.927 41.5374 43.037 41.18 43.037 40.6936V21.7317C43.9065 21.3544 44.9659 21.0466 46.2152 20.7985C47.4646 20.5503 48.524 20.4311 49.3935 20.4311C50.0332 20.4311 50.5629 20.451 50.9827 20.4907C51.3924 20.5304 51.7323 20.5503 52.0021 20.5503C52.5318 20.5503 52.9016 20.4411 53.1115 20.2127C53.3214 19.9844 53.4213 19.627 53.4213 19.1405V14.3951C53.4213 13.8689 53.3114 13.5016 53.0815 13.2931C52.8517 13.0846 52.4719 12.9854 51.9421 12.9854H51.1426C49.6334 12.9854 48.1942 13.3328 46.8549 14.0278C45.5156 14.7227 44.0864 15.8942 42.5672 17.5521L41.8276 14.5043C41.6377 13.6803 41.108 13.2633 40.2385 13.2633H36.1507C35.6609 13.2633 35.3011 13.3626 35.0713 13.5711C34.8414 13.7796 34.7314 14.1469 34.7314 14.6731V40.6936C34.7314 41.18 34.8414 41.5374 35.0713 41.7658ZM73.1103 41.7657C73.3402 41.9941 73.7 42.1033 74.1897 42.1033H79.6468C80.1765 42.1033 80.5463 41.9941 80.7562 41.7657C80.9561 41.5374 81.066 41.18 81.066 40.6935V20.2623C83.1049 19.2497 85.1938 18.7434 87.3127 18.7434C89.6214 18.7434 90.7808 20.0241 90.7808 22.5854V40.7035C90.7808 41.1899 90.8907 41.5473 91.1206 41.7756C91.3505 42.004 91.7103 42.1132 92.2 42.1132H97.6571C98.1868 42.1132 98.5566 42.004 98.7665 41.7756C98.9763 41.5473 99.0763 41.1899 99.0763 40.7035V20.2127C101.165 19.2298 103.224 18.7434 105.273 18.7434C107.582 18.7434 108.741 20.0241 108.741 22.5854V40.7035C108.741 41.1899 108.851 41.5473 109.081 41.7756C109.311 42.004 109.671 42.1132 110.16 42.1132H115.617C116.147 42.1132 116.517 42.004 116.727 41.7756C116.927 41.5473 117.037 41.1899 117.037 40.7035V20.7786C117.037 18.1378 116.307 16.0927 114.848 14.6234C113.389 13.1541 111.33 12.4194 108.681 12.4194C106.862 12.4194 105.103 12.6974 103.394 13.2633C101.685 13.8292 99.8659 14.7524 97.9369 16.0331C96.5377 13.6207 94.129 12.4194 90.7208 12.4194C89.0217 12.4194 87.3626 12.6974 85.7535 13.2434C84.1444 13.7895 82.3353 14.7127 80.3264 16.0331L79.8667 14.5043C79.6768 13.6803 79.1471 13.2633 78.2775 13.2633H74.1897C73.7 13.2633 73.3402 13.3626 73.1103 13.571C72.8805 13.7795 72.7705 14.1469 72.7705 14.673V40.6935C72.7705 41.18 72.8805 41.5374 73.1103 41.7657ZM136.746 42.9474C132.049 42.9474 128.441 41.6668 125.922 39.1054C123.403 36.5441 122.144 32.8807 122.144 28.0956C122.144 23.3104 123.433 19.3692 126.012 16.5795C128.591 13.7997 132.169 12.3999 136.756 12.3999C140.284 12.3999 143.033 13.2438 145.022 14.9414C147.011 16.639 148 18.8926 148 21.7121C148 24.5316 146.931 26.666 144.792 28.1155C142.653 29.5649 139.495 30.2896 135.327 30.2896C133.168 30.2896 131.289 30.0811 129.7 29.6741C129.93 32.1957 130.699 34.0026 131.999 35.0946C133.308 36.1867 135.287 36.7327 137.936 36.7327C138.995 36.7327 140.024 36.6632 141.034 36.5341C142.033 36.4051 143.433 36.1073 145.212 35.6605C145.322 35.6208 145.441 35.591 145.551 35.5712C145.661 35.5513 145.761 35.5414 145.831 35.5414C146.471 35.5414 146.801 35.9782 146.801 36.8419V39.443C146.801 40.0485 146.721 40.4655 146.551 40.7137C146.381 40.9619 146.051 41.1704 145.551 41.359C142.783 42.4113 139.844 42.9375 136.746 42.9375V42.9474ZM134.871 25.2265C136.798 25.2261 138.196 24.9382 139.075 24.3529C139.944 23.7671 140.384 22.8736 140.384 21.6724C140.384 19.2997 138.965 18.1183 136.126 18.1183C132.488 18.1183 130.39 20.3421 129.82 24.7797C131.338 25.0773 133.015 25.2262 134.871 25.2265ZM140.514 66.1683C138.445 63.5375 126.811 64.9174 121.594 65.5429C120.015 65.7315 119.765 64.3615 121.194 63.3588C130.469 56.8859 145.671 58.7523 147.43 60.9265C149.209 63.1106 146.96 78.2503 138.275 85.4678C136.936 86.5797 135.666 85.984 136.256 84.5147C138.215 79.6601 142.593 68.7991 140.514 66.1584V66.1683ZM133.778 73.8124C117.577 85.6859 94.0793 92.0099 73.8602 92.0099C45.5156 92.0099 19.9794 81.5957 0.659814 64.2719C-0.859365 62.9118 0.4999 61.0553 2.31892 62.1076C23.1577 74.1599 48.9337 81.4071 75.5593 81.4071C93.5196 81.4071 113.259 77.7041 131.419 70.0498C134.158 68.8982 136.456 71.8467 133.778 73.8124Z" fill="#1A98FF"/>
</g>
<defs>
<clipPath id="clip0_2809_13">
<rect width="148" height="92" fill="white"/>
</clipPath>
</defs>
</svg>
